<svg xmlns="http://www.w3.org/2000/svg" viewBox="0 0 383.78 81.44"><defs><style>.cls-1,.cls-6{fill:#2a5caa;}.cls-1,.cls-2,.cls-3,.cls-4,.cls-5{fill-rule:evenodd;}.cls-2{fill:#8ed8f8;}.cls-3{fill:#fff;}.cls-4{fill:#fff200;}.cls-5{fill:#faa61a;}.cls-7{fill:#58595b;}</style></defs><title>Asset 1newAsset</title><g id="Layer_2" data-name="Layer 2"><g id="Layer_1-2" data-name="Layer 1"><polygon class="cls-1" points="81.44 23.85 81.44 40.72 81.44 57.59 69.52 69.52 57.59 81.44 40.72 81.44 23.86 81.44 11.93 69.52 0 57.59 0 40.72 0 23.86 11.93 11.93 23.85 0 40.72 0 57.59 0 69.52 11.93 81.44 23.85"/><polygon class="cls-2" points="57.4 0.23 61.28 20.08 81.15 23.88 69.85 40.66 81.22 57.4 61.36 61.28 57.56 81.15 40.78 69.85 24.05 81.22 20.16 61.36 0.29 57.56 11.59 40.78 0.23 24.05 20.08 20.16 23.88 0.29 40.66 11.59 57.4 0.23"/><polygon class="cls-3" points="40.72 11.64 51 15.9 61.28 20.16 65.54 30.44 69.8 40.72 65.54 51 61.28 61.28 51 65.54 40.72 69.8 30.44 65.54 20.16 61.28 15.9 51 11.64 40.72 15.9 30.44 20.16 20.16 30.44 15.9 40.72 11.64"/><polygon class="cls-4" points="40.72 11.89 46.43 26.94 61.11 20.33 54.51 35.01 69.56 40.72 54.51 46.43 61.11 61.11 46.43 54.51 40.72 69.56 35.01 54.51 20.33 61.11 26.94 46.43 11.89 40.72 26.94 35.01 20.33 20.33 35.01 26.94 40.72 11.89"/><polygon class="cls-5" points="54.14 35.16 54.14 40.72 54.14 46.28 50.21 50.21 46.28 54.14 40.72 54.14 35.16 54.14 31.24 50.21 27.31 46.28 27.31 40.72 27.31 35.17 31.24 31.24 35.16 27.31 40.72 27.31 46.28 27.31 50.21 31.24 54.14 35.16"/><path class="cls-6" d="M383.78,11.27a.8.8,0,0,1-.08.37l-.15.38-6.85,15V37.21a1.39,1.39,0,0,1-1.58,1.57h-2.75a1.39,1.39,0,0,1-1.58-1.57V27.05L364,12c-.06-.13-.11-.26-.16-.38a1,1,0,0,1-.08-.37.71.71,0,0,1,.29-.63,1.3,1.3,0,0,1,.73-.2h3.07a2.3,2.3,0,0,1,1.44.4,2.64,2.64,0,0,1,.85,1.18l3.66,8.85L377.41,12a2.62,2.62,0,0,1,.84-1.18,2.34,2.34,0,0,1,1.44-.4h3.07a1.3,1.3,0,0,1,.73.2.71.71,0,0,1,.29.63M361.35,37.21a1.39,1.39,0,0,1-1.58,1.57h-1.69a1.88,1.88,0,0,1-1.34-.39,1.65,1.65,0,0,1-.47-1l-.12,0a2.45,2.45,0,0,1-1,1,3.63,3.63,0,0,1-1.75.37h-3.82a5.84,5.84,0,0,1-4.41-1.46,6,6,0,0,1-1.49-4.44V16.35c0-3.89,2-5.85,5.9-5.91h9.64A1.4,1.4,0,0,1,360.76,12v2.36A1.39,1.39,0,0,1,359.18,16h-8.07a1.4,1.4,0,0,0-1.57,1.58V31.89a1.4,1.4,0,0,0,1.57,1.58h3a1.39,1.39,0,0,0,1.57-1.58V28.35h-1.38a1.64,1.64,0,0,1-1.14-.39,1.51,1.51,0,0,1-.43-1.18V24.42a1.39,1.39,0,0,1,1.57-1.58h5.51a1.4,1.4,0,0,1,1.58,1.58ZM333.44,20.09V17.37a1.66,1.66,0,0,0-.41-1.18,1.52,1.52,0,0,0-1.16-.43H327.5v5.9h4.37A1.39,1.39,0,0,0,333.44,20.09Zm7.64,17.83a.73.73,0,0,1-.32.64,1.17,1.17,0,0,1-.71.22h-3.22a2,2,0,0,1-1.38-.39,5.44,5.44,0,0,1-.91-1.18L328.13,27h-.63V37.21a1.39,1.39,0,0,1-1.58,1.57h-2.75a1.39,1.39,0,0,1-1.57-1.57V12a1.39,1.39,0,0,1,1.57-1.58h10.27q5.91,0,5.91,5.91v4.72c0,3.67-1.71,5.63-5.12,5.86l6.61,10.28A1.13,1.13,0,0,1,341.08,37.92Zm-23.62-.71a1.39,1.39,0,0,1-1.57,1.57H301.32a1.41,1.41,0,0,1-1.57-1.61V12a1.4,1.4,0,0,1,1.57-1.58h14.57A1.39,1.39,0,0,1,317.46,12v2.36a1.61,1.61,0,0,1-.41,1.14,1.52,1.52,0,0,1-1.16.43l-10.24,0v5.47h8.27A1.39,1.39,0,0,1,315.49,23V25.4A1.39,1.39,0,0,1,313.92,27h-8.27v6.3h10.24a1.39,1.39,0,0,1,1.57,1.58Zm-22.43,0a1.39,1.39,0,0,1-1.58,1.57H290.7a1.36,1.36,0,0,1-1.42-.75l-6.06-14V37.21a1.39,1.39,0,0,1-1.57,1.57h-2.76a1.39,1.39,0,0,1-1.57-1.57V12a1.39,1.39,0,0,1,1.57-1.58h2.76a1.34,1.34,0,0,1,1.41.79l6.06,13.89V12a1.4,1.4,0,0,1,1.58-1.58h2.75A1.4,1.4,0,0,1,295,12Zm-21.85,0a1.39,1.39,0,0,1-1.57,1.57H257.05a1.41,1.41,0,0,1-1.58-1.61V12a1.4,1.4,0,0,1,1.58-1.58h14.56A1.39,1.39,0,0,1,273.18,12v2.36a1.57,1.57,0,0,1-.41,1.14,1.52,1.52,0,0,1-1.16.43l-10.24,0v5.47h8.27A1.39,1.39,0,0,1,271.21,23V25.4A1.39,1.39,0,0,1,269.64,27h-8.27v6.3h10.24a1.39,1.39,0,0,1,1.57,1.58Zm-31.09,0a1.39,1.39,0,0,1-1.58,1.57h-2.75a1.39,1.39,0,0,1-1.58-1.57V27h-5.9V37.21a1.39,1.39,0,0,1-1.57,1.57H226a1.39,1.39,0,0,1-1.57-1.57V12A1.39,1.39,0,0,1,226,10.44h2.76A1.39,1.39,0,0,1,230.28,12v9.44h5.9V12a1.4,1.4,0,0,1,1.58-1.58h2.75A1.4,1.4,0,0,1,242.09,12ZM212.49,28l-1.73-7.24L209.07,28Zm8.23,8.89a1.81,1.81,0,0,1-.08,1.4,1.18,1.18,0,0,1-1.1.53h-3.23a1.42,1.42,0,0,1-1.12-.37,2.8,2.8,0,0,1-.54-1.2l-.94-3.94h-5.9l-.91,3.94a2.81,2.81,0,0,1-.53,1.2,1.44,1.44,0,0,1-1.12.37H202a1.18,1.18,0,0,1-1.1-.53,1.77,1.77,0,0,1-.08-1.4L207.69,12a3.42,3.42,0,0,1,.49-1.16,1.24,1.24,0,0,1,1.08-.42h3a1.25,1.25,0,0,1,1.09.42,3.63,3.63,0,0,1,.49,1.16ZM202.3,11.27a1,1,0,0,1-.08.37c-.06.12-.11.25-.16.38l-6.85,15V37.21a1.39,1.39,0,0,1-1.57,1.57h-2.76a1.39,1.39,0,0,1-1.57-1.57V27.05l-6.85-15c-.05-.13-.11-.26-.16-.38a1,1,0,0,1-.08-.37.7.7,0,0,1,.3-.63,1.28,1.28,0,0,1,.73-.2h3.07a2.29,2.29,0,0,1,1.43.4A2.56,2.56,0,0,1,188.6,12l3.66,8.85L195.92,12a2.56,2.56,0,0,1,.85-1.18,2.29,2.29,0,0,1,1.43-.4h3.07a1.3,1.3,0,0,1,.73.2A.7.7,0,0,1,202.3,11.27ZM178.68,37.21a1.39,1.39,0,0,1-1.57,1.57h-2.76a1.37,1.37,0,0,1-1.42-.75l-6.06-14V37.21a1.39,1.39,0,0,1-1.57,1.57h-2.76A1.39,1.39,0,0,1,161,37.21V12a1.39,1.39,0,0,1,1.57-1.58h2.76a1.33,1.33,0,0,1,1.41.79l6.07,13.89V12a1.39,1.39,0,0,1,1.57-1.58h2.76A1.39,1.39,0,0,1,178.68,12ZM149.08,28l-1.73-7.24L145.66,28Zm8.23,8.89a1.77,1.77,0,0,1-.08,1.4,1.18,1.18,0,0,1-1.1.53H152.9a1.42,1.42,0,0,1-1.12-.37,2.69,2.69,0,0,1-.53-1.2l-.95-3.94h-5.9l-.91,3.94a2.81,2.81,0,0,1-.53,1.2,1.44,1.44,0,0,1-1.12.37h-3.23a1.18,1.18,0,0,1-1.1-.53,1.77,1.77,0,0,1-.08-1.4L144.28,12a3.42,3.42,0,0,1,.49-1.16,1.24,1.24,0,0,1,1.08-.42h3a1.25,1.25,0,0,1,1.09.42,3.63,3.63,0,0,1,.49,1.16Zm-23.54.36a1.39,1.39,0,0,1-1.57,1.57h-2.76a1.39,1.39,0,0,1-1.57-1.57V22.68L123,32.6a1,1,0,0,1-1.93,0l-5-9.92V37.21a1.39,1.39,0,0,1-1.58,1.57h-2.75a1.39,1.39,0,0,1-1.57-1.57V12a1.39,1.39,0,0,1,1.57-1.58h2.75a1.71,1.71,0,0,1,.87.22,1.39,1.39,0,0,1,.59.61l6.06,12,6-12a1.34,1.34,0,0,1,.59-.61,1.69,1.69,0,0,1,.86-.22h2.76A1.39,1.39,0,0,1,133.77,12Z"/><path class="cls-7" d="M372.59,52.64h1.57c5.07,0,6.9,3.42,6.9,7.73,0,5.29-2.36,8.39-6.9,8.39h-1.57ZM370,71h3.22c7.74,0,10.57-4.66,10.57-10.63,0-4.63-2-7.23-3.81-8.5a9,9,0,0,0-5.49-1.47H370Zm-19,0h10V68.76h-7.38V61.44h6.67V59.19h-6.67V52.64h7V50.4H351Zm-15.73,0h2.6V52.64h4.72V50.4h-12v2.24h4.72Zm-15.73,0h2.6V50.4h-2.6ZM291,71h2.48V53.23h.05L299.12,71H301l5.85-17.77h.06V71h2.48V50.4h-3.9l-5.28,16.38h-.06L295,50.4h-4Zm-12.75,0h2.59V50.4h-2.59ZM260.6,71H270V68.76H263.2V50.4h-2.6Zm-37,0h10V68.76h-7.38V61.44h6.67V59.19h-6.67V52.64h7V50.4h-9.59Zm-15.73,0h2.59V52.64h4.73V50.4H203.16v2.24h4.73ZM186.6,63.39l3.25-10.28h.06l3.16,10.28Zm2-13L181.65,71h2.59l1.66-5.37h7.85L195.4,71h2.72l-6.73-20.6ZM167.8,71h2.6l6.46-20.6h-2.59l-5.05,16.79h-.06L164.38,50.4h-2.84Zm-17,0h2.6V50.4h-2.6ZM132.47,52.52h2.07c2.27,0,3.77,1.09,3.77,3.4a3.47,3.47,0,0,1-3.83,3.63h-2ZM129.87,71h2.6V61.67h1.18c1.95,0,2.69.65,3.28,2.36l2.36,7h2.8l-2.89-8.26a2.62,2.62,0,0,0-2.24-2v-.06A4.7,4.7,0,0,0,141,55.74a5.29,5.29,0,0,0-1.53-3.93,5.82,5.82,0,0,0-4.34-1.41h-5.29ZM112.66,52.52h1.48c2.66,0,4.25,1.12,4.25,4,0,2.3-1.15,3.78-4.31,3.78h-1.42ZM110.07,71h2.59V62.38h1.75c4.36,0,6.7-2.12,6.7-6.14A5.71,5.71,0,0,0,119.48,52,5.94,5.94,0,0,0,115,50.4h-5Z"/></g></g></svg>